<svg width="82" height="26" viewBox="0 0 82 26" fill="none" xmlns="http://www.w3.org/2000/svg">
<path d="M79 9.22822C70.7811 9.22822 62.7516 7.53665 54.5592 7.30163C46.8177 7.07955 38.981 6.65944 31.1729 6.65944C25.9489 6.65944 20.3757 5.90451 15.2756 7.58705C14.6365 7.7979 8.1299 9.93651 8.16506 9.72771C8.55511 7.4115 14.7216 7.26241 15.6271 7.15893C23.3834 6.27239 30.8141 3.44847 38.689 3.44847C48.421 3.44847 57.891 5.37505 67.6448 5.37505C69.3315 5.37505 74.1195 4.35764 75.4853 6.15995C75.6031 6.31544 69.131 7.30163 68.2125 7.30163C60.9284 7.30163 52.889 6.07418 45.6914 7.80112C39.2223 9.35324 32.8897 8.52784 26.3875 9.54932C21.8811 10.2573 17.4416 10.4066 12.9505 11.5116C10.4831 12.1186 3.00566 13.0814 5.51551 13.0814C7.95615 13.0814 10.3574 12.4392 12.8153 12.4392C15.4753 12.4392 18.6523 13.1696 21.1425 11.7613C24.5787 9.81796 28.594 9.34478 32.2003 7.90815C37.1748 5.92641 42.2027 5.37505 47.3676 5.37505C51.3515 5.37505 55.6162 4.92633 59.4258 6.80215C62.8203 8.4736 66.5458 9.78451 70.1321 10.5126C71.9819 10.8882 71.1745 11.1548 69.9699 11.1548C65.5278 11.1548 61.0371 11.797 56.5599 11.797C44.4567 11.797 32.3535 11.797 20.2503 11.797C16.046 11.797 12.2358 11.6427 8.65171 15.008C6.74481 16.7985 5.92314 19.3771 3.78519 20.7877C1.19719 22.4953 5.79761 18.9074 6.24549 18.54C9.5222 15.8521 12.9345 16.3681 16.6274 15.3647C20.3478 14.354 24.4358 13.3394 28.2259 13.1171C32.0422 12.8932 35.8953 13.0814 39.7163 13.0814C42.3373 13.0814 44.9634 13.1454 47.5839 13.0814C50.3126 13.0147 52.8628 11.8569 55.5866 11.797C58.6335 11.73 61.7299 11.6533 64.7789 11.797C66.2748 11.8675 67.5947 13.0814 69.2399 13.0814C71.6611 13.0814 74.0029 15.008 76.5667 15.008C83.0555 15.008 63.5534 13.9637 57.1006 14.8653C53.624 15.351 50.6377 16.9346 47.0972 16.9346C42.6723 16.9346 38.2474 16.9346 33.8224 16.9346C29.1059 16.9346 24.6068 17.205 19.9799 18.5757C17.4761 19.3175 15.1258 20.8657 12.6531 21.7867C11.6795 22.1493 9.56049 23.609 8.54357 22.7143C7.54708 21.8377 5.24913 18.9981 5.54254 17.2557C5.86133 15.3626 8.75415 14.769 9.86834 14.4015C14.0285 13.029 18.1854 13.0814 22.4402 13.0814C26.62 13.0814 30.944 13.5065 35.0932 12.796C40.8694 11.8068 45.4547 8.43017 50.7471 5.73182C54.1817 3.9807 68.2508 0.160698 69.9699 6.58808C70.5916 8.91246 72.3356 12.3359 70.078 13.5095C66.2174 15.5165 62.8762 16.2924 58.6687 16.2924C54.6316 16.2924 51.1232 14.9711 47.1783 14.4371C43.9616 14.0018 40.6031 14.3658 37.3642 14.3658C32.3437 14.3658 28.0921 15.1991 23.1972 16.6491C18.8772 17.9289 15.4688 20.7877 10.8687 20.7877" stroke="#F0C9E8" stroke-width="5" stroke-linecap="round" stroke-linejoin="round"/>
</svg>
